#!OML:ASF G:\ViconDB\ViconDB\414\test\team2\shane.ASF
:FULLY-SPECIFIED
:DEGREES
204
root 4.9177 16.3636 -2.75894 -6.09136 5.1085 -3.04175
lowerback 7.7451 3.56801 0.995321
upperback 4.16225 4.80292 -2.8004
thorax 0.301269 2.46182 -3.78827
lowerneck -16.4588 -10.7752 -14.0614
upperneck 11.3445 -15.1101 21.0576
head 9.13575 -6.1189 7.37002
rclavicle -4.59193e-014 -1.74931e-014
rhumerus -32.2931 11.2603 -96.7387
rradius 27.2831
rwrist 34.4898
rhand -27.2659 -13.03
rfingers 7.12502
rthumb -0.676913 -43.0087
lclavicle -4.59193e-014 -1.74931e-014
lhumerus -33.2769 -1.68424 88.179
lradius 19.4042
lwrist -17.9117
lhand -40.0531 8.1943
lfingers 7.12502
lthumb -13.0189 37.7681
rfemur 10.7842 -17.0581 11.853
rtibia 62.1656
rfoot -5.13811 -8.76005
rtoes -11.9127
lfemur -15.531 5.25392 -16.5862
ltibia 44.9697
lfoot -26.5049 -13.5719
ltoes -2.19199
205
root 4.9413 16.3355 -2.59609 -6.26867 5.47721 -2.92795
lowerback 7.55442 3.21026 0.590822
upperback 4.59448 4.31261 -2.53055
thorax 0.765163 2.21431 -3.22284
lowerneck -16.7702 -10.584 -13.916
upperneck 11.2786 -14.7446 20.6822
head 9.04731 -5.95529 7.26591
rclavicle -2.44505e-014 1.90833e-014
rhumerus -32.548 12.3214 -96.6067
rradius 27.6798
rwrist 33.9324
rhand -27.4495 -12.7685
rfingers 7.12502
rthumb -0.854235 -42.7466
lclavicle -2.44505e-014 1.90833e-014
lhumerus -32.2487 -2.52317 89.1874
lradius 19.5196
lwrist -18.0205
lhand -39.7393 8.35975
lfingers 7.12502
lthumb -12.7165 37.9525
rfemur 9.09993 -17.8384 11.4567
rtibia 64.2672
rfoot -6.94626 -8.16154
rtoes -13.4149
lfemur -14.9168 5.13857 -16.7442
ltibia 45.3511
lfoot -27.3173 -13.5351
ltoes -2.42701
206
root 4.96632 16.3056 -2.44004 -6.50401 5.43449 -2.73543
lowerback 7.58901 3.01098 0.162804
upperback 4.98962 4.02937 -2.365
thorax 1.09568 2.06622 -2.78446
lowerneck -17.0472 -10.3698 -13.6914
upperneck 11.2105 -14.4039 20.4603
head 8.96955 -5.78979 7.20125
rclavicle -7.43455e-014 4.29375e-014
rhumerus -32.7503 13.8194 -96.7783
rradius 27.9139
rwrist 32.9348
rhand -28.0524 -13.0388
rfingers 7.12502
rthumb -1.43651 -43.0137
lclavicle -7.43455e-014 4.29375e-014
lhumerus -31.4444 -4.78001 90.4425
lradius 20.0407
lwrist -17.3547
lhand -40.0373 8.63378
lfingers 7.12502
lthumb -13.0037 38.2085
rfemur 7.39629 -18.0887 11.0059
rtibia 66.2101
rfoot -8.97597 -7.26592
rtoes -14.1973
lfemur -14.2074 4.93462 -16.9455
ltibia 45.7202
lfoot -27.9945 -13.2458
ltoes -2.2587
207
root 4.98925 16.2698 -2.29017 -6.75228 5.48086 -2.64706
lowerback 7.58531 2.75809 -0.138731
upperback 5.39699 3.68392 -2.16085
thorax 1.46956 1.88686 -2.37212
lowerneck -17.3875 -10.1772 -13.6111
upperneck 11.2034 -14.0863 20.3467
head 8.95148 -5.62732 7.1962
rclavicle -1.8487e-014 -6.36111e-015
rhumerus -32.9522 15.0081 -96.8212
rradius 28.4434
rwrist 31.9754
rhand -28.0399 -13.1497
rfingers 7.12502
rthumb -1.42442 -43.1247
lclavicle -1.8487e-014 -6.36111e-015
lhumerus -30.5935 -6.23614 91.3314
lradius 20.477
lwrist -16.8029
lhand -40.1974 8.23044
lfingers 7.12502
lthumb -13.1581 37.7953
rfemur 5.7049 -18.4563 10.7238
rtibia 67.9581
rfoot -10.8657 -6.34883
rtoes -14.6691
lfemur -13.4797 4.85228 -17.0294
ltibia 46.0795
lfoot -28.77 -12.9999
ltoes -2.38353
208
root 5.0147 16.2283 -2.14573 -7.06579 5.28388 -2.51924
lowerback 7.75009 2.53688 -0.31605
upperback 5.7656 3.38435 -2.06293
thorax 1.73327 1.73307 -2.15291
lowerneck -17.8017 -9.82849 -13.0172
upperneck 11.3275 -13.6085 19.8137
head 8.88271 -5.3919 6.98177
rclavicle 2.18663e-015 -1.82882e-014
rhumerus -33.0165 15.802 -96.7718
rradius 28.6517
rwrist 32.3634
rhand -28.511 -13.2346
rfingers 7.12502
rthumb -1.87943 -43.2061
lclavicle 2.18663e-015 -1.82882e-014
lhumerus -29.8813 -8.70729 92.3039
lradius 21.0309
lwrist -16.3287
lhand -40.4211 8.80176
lfingers 7.12502
lthumb -13.3737 38.3525
rfemur 3.97167 -18.5914 10.4428
rtibia 69.5291
rfoot -12.5287 -5.68353
rtoes -16.0237
lfemur -12.6414 5.07978 -17.1661
ltibia 46.3891
lfoot -29.5856 -12.4675
ltoes -3.06581
209
root 5.03627 16.1932 -1.99764 -7.3498 5.21238 -2.57323
lowerback 7.9071 2.26865 -0.444069
upperback 6.03669 3.02146 -1.84798
thorax 1.89686 1.54457 -1.83899
lowerneck -18.0069 -9.62435 -12.8317
upperneck 11.437 -13.297 19.4856
head 8.85497 -5.24998 6.88533
rclavicle 5.56597e-014 -2.3059e-014
rhumerus -33.3384 16.759 -96.8056
rradius 28.8311
rwrist 32.3833
rhand -28.9018 -12.9817
rfingers 7.12502
rthumb -2.25691 -42.9496
lclavicle 5.56597e-014 -2.3059e-014
lhumerus -29.3554 -11.0539 93.2525
lradius 21.8071
lwrist -15.037
lhand -40.6439 9.31775
lfingers 7.12502
lthumb -13.5884 38.8543
rfemur 2.22057 -18.7559 10.4913
rtibia 70.8653
rfoot -13.7868 -5.37972
rtoes -16.9541
lfemur -11.8807 5.21329 -17.0535
ltibia 46.6433
lfoot -30.2586 -12.3254
ltoes -3.48309
210
root 5.05766 16.1692 -1.84953 -7.71403 4.97891 -2.61837
lowerback 8.18637 2.01291 -0.610799
upperback 6.26164 2.66813 -1.5758
thorax 1.94566 1.35702 -1.45043
lowerneck -18.2037 -9.29255 -12.5592
upperneck 11.6603 -12.8102 18.9712
head 8.81171 -5.03476 6.74051
rclavicle 3.4191e-014 -2.22639e-014
rhumerus -33.8628 17.9666 -97.0196
rradius 29.3133
rwrist 31.2636
rhand -29.5898 -13.718
rfingers 7.12502
rthumb -2.92127 -43.6777
lclavicle 3.4191e-014 -2.22639e-014
lhumerus -28.9149 -13.0744 94.0619
lradius 22.1522
lwrist -15.1488
lhand -41.1406 9.52492
lfingers 7.12502
lthumb -14.0671 39.0288
rfemur 0.571301 -18.679 10.5851
rtibia 71.9532
rfoot -14.7198 -5.20513
rtoes -17.1809
lfemur -10.9358 5.26324 -16.9315
ltibia 46.7944
lfoot -30.8608 -12.1077
ltoes -3.55305
211
root 5.0829 16.1437 -1.70484 -7.963 4.7545 -2.52761
lowerback 8.42346 1.74182 -0.886712
upperback 6.43214 2.28658 -1.29663
thorax 1.96215 1.15058 -0.989433
lowerneck -18.4676 -8.96355 -12.4525
upperneck 11.9373 -12.2921 18.4858
head 8.81087 -4.80601 6.6388
rclavicle -3.37934e-014 1.19271e-014
rhumerus -34.0673 18.0656 -96.4867
rradius 29.3632
rwrist 32.36
rhand -29.617 -13.3758
rfingers 7.12502
rthumb -2.94757 -43.3352
lclavicle -3.37934e-014 1.19271e-014
lhumerus -28.2004 -14.2726 94.6438
lradius 22.6654
lwrist -14.7061
lhand -40.6746 9.47573
lfingers 7.12502
lthumb -13.6181 39.0103
rfemur -1.16559 -18.6855 10.5168
rtibia 72.8436
rfoot -15.484 -5.30812
rtoes -17.4202
lfemur -10.0103 5.10065 -17.0501
ltibia 46.8692
lfoot -31.4531 -11.5337
ltoes -3.72084
212
root 5.10493 16.127 -1.55917 -8.20554 4.58582 -2.49323
lowerback 8.6405 1.4342 -1.08211
upperback 6.55573 1.86107 -1.09952
thorax 1.95421 0.926068 -0.653254
lowerneck -18.5025 -8.61481 -12.3112
upperneck 12.0568 -11.7947 18.1983
head 8.73896 -4.5862 6.59884
rclavicle -7.15625e-015 3.97569e-015
rhumerus -34.3279 17.6131 -96.2443
rradius 29.4674
rwrist 32.8859
rhand -30.1962 -13.4405
rfingers 7.12502
rthumb -3.50694 -43.3914
lclavicle -7.15625e-015 3.97569e-015
lhumerus -27.6163 -14.9057 94.8208
lradius 22.837
lwrist -16.1521
lhand -40.8484 9.60804
lfingers 7.12502
lthumb -13.7856 39.1313
rfemur -2.89395 -18.5229 10.5977
rtibia 73.5144
rfoot -16.3808 -5.16769
rtoes -16.2782
lfemur -9.07698 5.09249 -17.1217
ltibia 46.849
lfoot -32.0817 -10.8625
ltoes -4.28637
213
root 5.12778 16.1143 -1.41767 -8.40403 4.34101 -2.67695
lowerback 8.8693 1.12319 -1.11041
upperback 6.66469 1.43957 -0.755168
thorax 1.93087 0.705832 -0.257249
lowerneck -18.8334 -8.28062 -12.0588
upperneck 12.393 -11.2715 17.5166
head 8.7516 -4.36185 6.40058
rclavicle 9.34288e-015 -2.38542e-015
rhumerus -34.646 17.8748 -95.8672
rradius 29.688
rwrist 33.117
rhand -30.4061 -13.4064
rfingers 7.12502
rthumb -3.70959 -43.3538
lclavicle 9.34288e-015 -2.38542e-015
lhumerus -26.9244 -15.4256 95.0149
lradius 23.1724
lwrist -17.002
lhand -40.6388 9.44471
lfingers 7.12502
lthumb -13.5836 38.9816
rfemur -4.66206 -18.302 11.0317
rtibia 73.9639
rfoot -17.162 -5.46052
rtoes -16.1296
lfemur -8.22861 5.15913 -16.9072
ltibia 46.7567
lfoot -32.5235 -10.4839
ltoes -4.73873
214
root 5.15344 16.1096 -1.2749 -8.53145 4.1428 -2.69522
lowerback 8.91218 0.851231 -1.23317
upperback 6.82463 1.06875 -0.479455
thorax 2.0685 0.508212 0.122726
lowerneck -19.148 -7.99729 -11.9598
upperneck 12.6489 -10.8224 17.1051
head 8.78201 -4.16086 6.31165
rclavicle -1.59028e-014 -1.19271e-014
rhumerus -34.7746 17.6512 -95.5153
rradius 29.9651
rwrist 32.6127
rhand -30.522 -13.5463
rfingers 7.12502
rthumb -3.82153 -43.4918
lclavicle -1.59028e-014 -1.19271e-014
lhumerus -25.9682 -15.027 94.9453
lradius 23.1795
lwrist -18.5293
lhand -40.506 8.97284
lfingers 7.12502
lthumb -13.4556 38.5182
rfemur -6.4977 -18.1959 11.312
rtibia 74.1464
rfoot -17.5716 -5.96954
rtoes -14.6105
lfemur -7.40522 5.13444 -16.8977
ltibia 46.5647
lfoot -32.8666 -10.2956
ltoes -4.69908
215
root 5.17561 16.1112 -1.13291 -8.6698 3.86388 -2.79736
lowerback 8.94511 0.535382 -1.38383
upperback 6.99985 0.637008 -0.175823
thorax 2.23424 0.277159 0.551169
lowerneck -19.4804 -7.54067 -11.516
upperneck 12.7609 -10.1671 16.5085
head 8.70672 -3.86639 6.12733
rclavicle -6.85807e-015 -7.95139e-015
rhumerus -34.6408 16.861 -94.9473
rradius 30.05
rwrist 32.5363
rhand -30.6003 -13.5946
rfingers 7.12502
rthumb -3.89718 -43.5387
lclavicle -6.85807e-015 -7.95139e-015
lhumerus -24.9618 -15.1815 94.9219
lradius 23.337
lwrist -18.4388
lhand -40.7028 8.42435
lfingers 7.12502
lthumb -13.6452 37.9571
rfemur -8.27415 -17.8248 11.7389
rtibia 74.1756
rfoot -18.0435 -6.31602
rtoes -14.9627
lfemur -6.47399 5.12558 -16.7809
ltibia 46.1863
lfoot -33.1093 -10.0397
ltoes -4.72005
216
root 5.18991 16.1568 -0.982676 -8.73087 3.81198 -2.90848
lowerback 8.92537 0.232361 -1.57481
upperback 7.1255 0.219713 0.157774
thorax 2.38433 0.050668 1.03164
lowerneck -19.8235 -7.27143 -11.396
upperneck 12.9468 -9.71975 16.0339
head 8.7211 -3.67387 6.00908
rclavicle 6.65929e-015 1.39149e-014
rhumerus -34.5038 15.4422 -94.0541
rradius 30.0044
rwrist 33.2476
rhand -30.8851 -13.0903
rfingers 7.12502
rthumb -4.17222 -43.0292
lclavicle 6.65929e-015 1.39149e-014
lhumerus -24.2594 -15.8909 95.089
lradius 23.8781
lwrist -18.0367
lhand -40.139 8.52583
lfingers 7.12502
lthumb -13.1017 38.0943
rfemur -9.85106 -17.501 12.2874
rtibia 73.7509
rfoot -18.3476 -6.79609
rtoes -16.0625
lfemur -5.70133 4.2949 -16.7053
ltibia 45.6394
lfoot -32.8087 -10.3894
ltoes -3.76099
217
root 5.21529 16.1436 -0.844958 -8.78408 3.66806 -2.9709
lowerback 9.03535 -0.0672573 -1.53383
upperback 7.11319 -0.181595 0.419097
thorax 2.32426 -0.155342 1.30587
lowerneck -19.9865 -6.92649 -11.1598
upperneck 13.2422 -9.19473 15.3804
head 8.71518 -3.46253 5.82361
rclavicle -5.36719e-015 -1.19271e-014
rhumerus -34.7434 14.1934 -93.2943
rradius 30.108
rwrist 34.3039
rhand -30.8428 -13.7637
rfingers 7.12502
rthumb -4.13134 -43.7033
lclavicle -5.36719e-015 -1.19271e-014
lhumerus -23.5638 -15.4871 95.145
lradius 24.0304
lwrist -18.5978
lhand -40.2631 8.41279
lfingers 7.12502
lthumb -13.2214 37.9735
rfemur -11.6257 -17.1665 12.6441
rtibia 73.4176
rfoot -18.8247 -6.8266
rtoes -14.8112
lfemur -4.44183 4.67297 -16.706
ltibia 44.8241
lfoot -33.464 -9.26239
ltoes -5.21226
218
root 5.22852 16.2101 -0.693899 -8.87651 3.48599 -3.13466
lowerback 9.16157 -0.34108 -1.58173
upperback 7.12403 -0.554554 0.724971
thorax 2.28414 -0.351943 1.67553
lowerneck -20.0956 -6.60287 -11.0918
upperneck 13.4191 -8.71283 15.0785
head 8.70119 -3.25326 5.78308
rclavicle 1.78906e-015 1.15295e-014
rhumerus -34.9441 13.1724 -92.8268
rradius 30.4245
rwrist 33.2093
rhand -30.7373 -13.8048
rfingers 7.12502
rthumb -4.02947 -43.7464
lclavicle 1.78906e-015 1.15295e-014
lhumerus -23.0532 -16.015 95.303
lradius 24.6403
lwrist -17.8403
lhand -40.1812 8.84561
lfingers 7.12502
lthumb -13.1425 38.4114
rfemur -12.9352 -16.5765 13.2612
rtibia 72.559
rfoot -19.1419 -6.8435
rtoes -14.7245
lfemur -3.42112 4.1493 -16.5102
ltibia 43.7864
lfoot -32.9633 -9.79559
ltoes -4.6805
